<?xml version="1.0" standalone="no"?>
<!DOCTYPE svg PUBLIC "-//W3C//DTD SVG 20010904//EN"
 "http://www.w3.org/TR/2001/REC-SVG-20010904/DTD/svg10.dtd">
<svg version="1.0" xmlns="http://www.w3.org/2000/svg"
 width="176.000000pt" height="97.000000pt" viewBox="0 0 176.000000 97.000000"
 preserveAspectRatio="xMidYMid meet">

<g transform="translate(0.000000,97.000000) scale(0.100000,-0.100000)"
fill="#fff" stroke="none">
<path d="M156 950 c-58 -23 -113 -72 -132 -117 -20 -47 -18 -127 6 -173 51
-99 164 -136 344 -112 49 7 50 8 67 57 23 67 9 81 -32 32 -56 -68 -125 -85
-197 -48 -46 23 -67 46 -87 94 -38 91 -5 194 75 235 78 40 159 18 202 -54 11
-19 24 -34 29 -34 5 0 9 27 9 59 l0 59 -42 6 c-116 17 -193 16 -242 -4z"/>
<path d="M1325 935 c-2 -5 -6 -31 -9 -57 -7 -57 11 -65 34 -15 14 30 18 32 78
35 l62 3 0 -154 c0 -164 -2 -172 -50 -179 -14 -1 -24 -7 -22 -13 1 -6 49 -10
117 -10 68 0 116 4 118 10 1 6 -9 12 -23 13 -48 7 -50 15 -50 178 l0 154 64 0
65 0 12 -35 c21 -56 41 -45 33 18 -4 28 -8 53 -9 55 -7 8 -418 6 -420 -3z"/>
<path d="M1172 908 c-33 -33 9 -80 54 -59 41 18 25 71 -21 71 -12 0 -26 -5
-33 -12z"/>
<path d="M530 900 c0 -6 11 -15 24 -19 33 -13 36 -28 36 -154 0 -134 -5 -155
-36 -163 -13 -3 -24 -10 -24 -15 0 -10 183 -12 193 -2 4 4 -6 12 -23 19 -29
13 -30 15 -30 79 l0 65 100 0 100 0 0 -65 c0 -60 -2 -66 -25 -77 -45 -20 -26
-28 70 -28 95 0 115 7 73 25 -22 10 -23 14 -23 160 0 148 0 150 23 153 12 2
22 10 22 18 0 12 -17 14 -97 12 -93 -3 -125 -16 -71 -28 21 -5 23 -12 26 -68
l3 -62 -101 0 -100 0 0 53 c0 58 7 73 33 78 10 2 18 9 18 14 -1 14 -191 19
-191 5z"/>
<path d="M1173 773 c-47 -16 -54 -28 -23 -36 18 -5 20 -14 20 -81 0 -65 -3
-78 -20 -88 -35 -22 -22 -28 55 -28 41 0 75 2 75 5 0 3 -9 14 -20 25 -17 17
-20 33 -20 120 0 110 2 108 -67 83z"/>
<path d="M151 423 c-61 -22 -138 -99 -147 -147 -27 -144 69 -256 225 -264 36
-2 93 1 125 5 l60 8 17 50 c9 27 15 54 12 58 -3 5 -26 -12 -50 -37 -67 -67
-148 -75 -219 -21 -50 38 -68 79 -69 155 0 83 23 126 85 158 75 39 160 18 198
-49 30 -51 42 -45 42 20 l0 59 -42 6 c-105 16 -193 15 -237 -1z"/>
<path d="M1330 379 c0 -15 -3 -41 -6 -58 -9 -43 22 -44 31 0 8 36 40 51 99 47
l41 -3 3 -148 c3 -160 -3 -187 -43 -187 -14 0 -25 -4 -25 -10 0 -6 45 -10 115
-10 70 0 115 4 115 10 0 6 -11 10 -24 10 -43 0 -47 17 -44 181 l3 154 41 3
c59 4 91 -11 99 -47 11 -50 25 -35 25 27 l0 57 -215 0 -215 0 0 -26z"/>
<path d="M527 373 c-13 -12 -7 -23 11 -23 37 0 42 -20 42 -156 0 -107 -3 -136
-16 -148 -8 -9 -22 -16 -30 -16 -8 0 -14 -4 -14 -10 0 -6 40 -10 100 -10 60 0
100 4 100 10 0 6 -6 10 -14 10 -31 0 -46 30 -46 91 l0 59 100 0 101 0 -3 -67
c-3 -59 -6 -69 -25 -78 -43 -18 -23 -25 72 -25 95 0 115 7 73 25 -22 10 -23
14 -23 160 0 148 0 150 23 153 12 2 22 10 22 18 0 12 -16 14 -92 12 -59 -2
-93 -7 -95 -15 -2 -6 6 -13 19 -15 21 -3 23 -9 26 -65 l3 -63 -101 0 -101 0 3
57 c3 52 6 59 31 71 15 7 25 17 22 23 -7 10 -178 13 -188 2z"/>
<path d="M1115 365 c-40 -14 -65 -38 -65 -62 0 -29 75 -5 83 27 4 17 12 21 34
18 23 -2 29 -8 31 -34 3 -31 1 -33 -67 -59 -75 -28 -90 -47 -77 -99 10 -41 91
-53 128 -19 19 17 20 17 29 0 14 -23 71 -22 100 3 24 19 24 19 3 20 -29 0 -34
17 -34 106 0 67 -2 75 -25 90 -34 23 -93 27 -140 9z m74 -201 c-22 -26 -54
-13 -57 23 -3 28 2 36 30 53 l33 20 3 -41 c2 -22 -2 -47 -9 -55z"/>
<path d="M1137 69 c-25 -35 -8 -63 41 -67 38 -3 42 -1 48 24 9 36 -6 58 -44
62 -22 2 -34 -3 -45 -19z"/>
</g>
</svg>
